<svg id="visual" viewBox="0 0 900 600" width="900" height="600" xmlns="http://www.w3.org/2000/svg" xmlns:xlink="http://www.w3.org/1999/xlink" version="1.1"><rect x="0" y="0" width="900" height="600" fill="#000000"></rect><defs><linearGradient id="grad1_0" x1="33.3%" y1="0%" x2="100%" y2="100%"><stop offset="20%" stop-color="#edac4b" stop-opacity="1"></stop><stop offset="80%" stop-color="#edac4b" stop-opacity="1"></stop></linearGradient></defs><defs><linearGradient id="grad1_1" x1="33.3%" y1="0%" x2="100%" y2="100%"><stop offset="20%" stop-color="#edac4b" stop-opacity="1"></stop><stop offset="80%" stop-color="#000000" stop-opacity="1"></stop></linearGradient></defs><defs><linearGradient id="grad2_0" x1="0%" y1="0%" x2="66.7%" y2="100%"><stop offset="20%" stop-color="#edac4b" stop-opacity="1"></stop><stop offset="80%" stop-color="#edac4b" stop-opacity="1"></stop></linearGradient></defs><defs><linearGradient id="grad2_1" x1="0%" y1="0%" x2="66.7%" y2="100%"><stop offset="20%" stop-color="#000000" stop-opacity="1"></stop><stop offset="80%" stop-color="#edac4b" stop-opacity="1"></stop></linearGradient></defs><g transform="translate(900, 0)"><path d="M0 324.5C-35.3 323.1 -70.6 321.7 -100.3 308.6C-130 295.5 -154.2 270.6 -181.6 250C-209.1 229.4 -239.8 213 -258.1 187.5C-276.3 162 -282 127.3 -291 94.6C-300 61.8 -312.3 30.9 -324.5 0L0 0Z" fill="#7e4d00"></path><path d="M0 162.2C-17.6 161.6 -35.3 160.9 -50.1 154.3C-65 147.7 -77.1 135.3 -90.8 125C-104.5 114.7 -119.9 106.5 -129 93.8C-138.2 81 -141 63.7 -145.5 47.3C-150 30.9 -156.1 15.4 -162.2 0L0 0Z" fill="#edac4b"></path></g><g transform="translate(0, 600)"><path d="M0 -324.5C30 -309.3 60 -294.1 93 -286.3C126 -278.4 161.9 -277.9 190.7 -262.5C219.6 -247.1 241.4 -216.8 256.5 -186.3C271.5 -155.9 279.9 -125.3 290.1 -94.3C300.3 -63.2 312.4 -31.6 324.5 0L0 0Z" fill="#7e4d00"></path><path d="M0 -162.2C15 -154.7 30 -147.1 46.5 -143.1C63 -139.2 80.9 -139 95.4 -131.3C109.8 -123.6 120.7 -108.4 128.2 -93.2C135.8 -77.9 139.9 -62.7 145 -47.1C150.1 -31.6 156.2 -15.8 162.2 0L0 0Z" fill="#edac4b"></path></g></svg>